<svg width="1000" height="1000" viewBox="0 0 1000 1000" fill="none" xmlns="http://www.w3.org/2000/svg">
<path d="M784.664 461.333C799.044 415.216 796.187 333.283 781.712 282.724C755.809 191.908 695.527 115.74 619.055 66.221C584.391 43.8241 507.348 9.99249 415.163 9.80348C330.978 9.61448 255.554 45.2416 220.985 67.2605C161.179 105.628 88.9929 183.781 63.7563 273.369C33.282 381.762 52.5189 489.116 98.9922 565.473C148.703 647.123 248.221 726.032 324.026 735.293C324.026 614.236 302.218 446.401 444.971 368.437C543.727 314.382 734.953 434.305 784.664 461.333Z" fill="url(#paint0_linear_839_1342)"/>
<path d="M378.102 606.899C378.102 705.099 458.002 784.999 556.202 784.999C654.402 784.999 734.302 705.099 734.302 606.899C734.302 508.699 654.402 428.799 556.202 428.799C457.902 428.899 378.102 508.699 378.102 606.899ZM690.202 595.199C696.702 669.299 641.802 734.499 567.902 740.999C493.802 747.499 428.602 692.599 422.102 618.699C415.602 544.599 470.502 479.399 544.402 473.099C618.502 466.399 683.702 521.299 690.202 595.199Z" fill="url(#paint1_linear_839_1342)"/>
<path d="M865.201 711.4C873.501 686.9 878.901 661.2 881.101 634.7L828.201 609.1C828.201 600.5 827.901 591.8 827.101 583.3C826.801 580.3 826.401 577.4 826.201 574.3L875.901 542.8C870.801 516.7 862.501 491.8 851.501 468.5L792.701 472.7C787.001 462.6 780.601 452.8 773.601 443.4L800.901 391.3C783.601 371.7 764.001 354.1 742.501 339.1L693.701 372.2C683.701 366.3 673.401 361 662.601 356.4L660.201 297.7C635.701 289.4 610.001 284 583.501 281.6L557.901 334.6C549.301 334.5 540.801 334.9 532.101 335.7C529.101 336 526.201 336.4 523.101 336.8L491.901 287C465.801 292.3 440.801 300.4 417.401 311.4L421.601 370.2C411.501 376 401.701 382.3 392.501 389.3L340.401 361.9C320.801 379.2 303.201 398.8 288.201 420.3L321.301 468.9C315.401 478.9 310.101 489.2 305.501 500L246.701 502.2C238.401 526.7 233.001 552.4 230.801 578.9L283.701 604.5C283.701 613.1 284.001 621.8 284.601 630.3C284.901 633.3 285.301 636.2 285.701 639.3L236.301 670.8C241.601 696.9 249.701 721.8 260.701 745.1L319.501 740.9C325.301 751 331.601 760.8 338.601 770.2L311.201 822.3C328.501 842.1 348.101 859.5 369.601 874.5L418.201 841.4C428.201 847.3 438.601 852.6 449.301 857.2L451.701 916C476.201 924.3 501.801 929.7 528.301 931.9L554.001 879C562.601 879 571.101 878.7 579.801 878.1C582.801 877.8 585.701 877.4 588.601 877L620.001 926.8C646.201 921.5 671.101 913.4 694.501 902.4L690.301 843.6C700.401 837.8 710.201 831.5 719.601 824.5L771.701 851.9C791.301 834.6 808.901 815 823.901 793.5L790.901 744.9C796.701 734.9 802.101 724.5 806.701 713.8L865.201 711.4ZM556.101 798.7C450.401 798.7 364.301 712.6 364.301 606.9C364.301 501.2 450.401 415.1 556.101 415.1C661.801 415.1 747.901 501.2 747.901 606.9C747.901 712.6 661.801 798.7 556.101 798.7Z" fill="url(#paint2_linear_839_1342)"/>
<defs>
<linearGradient id="paint0_linear_839_1342" x1="293.005" y1="124.03" x2="608.787" y2="764.265" gradientUnits="userSpaceOnUse">
<stop stop-color="#C5A3E3"/>
<stop offset="0.7172" stop-color="#7C3BA2"/>
</linearGradient>
<linearGradient id="paint1_linear_839_1342" x1="556.125" y1="428.862" x2="556.125" y2="784.99" gradientUnits="userSpaceOnUse">
<stop offset="5.32779e-09" stop-color="#29003D" stop-opacity="0.5"/>
<stop offset="1" stop-color="#29003D"/>
</linearGradient>
<linearGradient id="paint2_linear_839_1342" x1="718.729" y1="888.502" x2="393.534" y2="325.247" gradientUnits="userSpaceOnUse">
<stop stop-color="#29003D" stop-opacity="0.5"/>
<stop offset="0.5" stop-color="#29003D"/>
<stop offset="1" stop-color="#29003D"/>
</linearGradient>
</defs>
</svg>
