<svg width="1000" height="1000" viewBox="0 0 1000 1000" fill="none" xmlns="http://www.w3.org/2000/svg">
<path d="M886.4 964.6H113.6C40.5998 964.6 -12.8002 914 5.69983 862.1L87.1998 632.3C99.9998 596.3 144.4 571 195.2 571H473.6C545.7 684.9 616.7 818 661.5 878.3C674 895.1 686.4 882.3 713.7 866.5C736.8 853.2 760.3 842.7 745.9 819.1C719.5 776.3 639.9 638.6 607 571H804.8C855.6 571 900 596.2 912.8 632.3L994.3 862.1C1012.7 913.9 959.4 964.6 886.4 964.6Z" fill="url(#paint0_linear_839_1376)"/>
<path d="M393.401 35.4004C245.301 35.4004 131.801 159.7 131.801 307.8C131.801 455.9 265.601 556.7 393.101 557.9C511.901 559 655.201 454.7 655.201 306.6C655.301 158.6 541.501 35.4004 393.401 35.4004ZM393.401 450.5C312.301 450.5 246.501 384.7 246.501 303.6C246.501 222.5 312.301 156.7 393.401 156.7C474.501 156.7 540.301 222.5 540.301 303.6C540.301 384.7 474.501 450.5 393.401 450.5Z" fill="url(#paint1_linear_839_1376)"/>
<path d="M739.599 851.6L686.499 882.3C674.799 889 659.899 885 653.199 873.4L462.299 548.1C474.899 543.1 473.299 544.6 485.199 539.5C485.199 539.5 506.199 530.7 513.999 526.2C520.199 522.6 541.899 509.8 541.899 509.8C552.999 501.8 552.999 501.8 561.799 495.1L748.399 818.2C755.199 829.9 751.199 844.8 739.599 851.6Z" fill="url(#paint2_linear_839_1376)"/>
<path d="M561.899 495.1L748.499 818.2C755.199 829.9 751.199 844.8 739.599 851.5L686.499 882.2C682.699 884.4 678.499 885.5 674.299 885.5C665.899 885.5 657.699 881.1 653.199 873.3L462.299 548.1C474.899 543.1 473.299 544.6 485.199 539.5C485.199 539.5 506.199 530.7 513.999 526.2C520.199 522.6 541.899 509.8 541.899 509.8C553.099 501.8 553.099 501.8 561.899 495.1ZM562.199 493.9L561.499 494.5C552.699 501.2 552.699 501.2 541.599 509.1C540.699 509.7 519.799 521.9 513.699 525.4C506.099 529.9 485.199 538.6 484.999 538.7C478.399 541.5 475.999 542.3 472.999 543.4C470.499 544.2 467.799 545.1 462.099 547.4L461.199 547.8L461.699 548.6L652.499 873.8C656.999 881.6 665.399 886.4 674.399 886.4C678.799 886.4 683.199 885.2 686.999 883L740.099 852.3C752.099 845.3 756.299 829.9 749.299 817.9L562.599 494.7L562.199 493.9Z" fill="url(#paint3_linear_839_1376)"/>
<defs>
<linearGradient id="paint0_linear_839_1376" x1="500" y1="570.971" x2="500" y2="964.555" gradientUnits="userSpaceOnUse">
<stop stop-color="#D6CBE5"/>
<stop offset="0.7172" stop-color="#7C3BA2"/>
</linearGradient>
<linearGradient id="paint1_linear_839_1376" x1="521.259" y1="522.179" x2="261.41" y2="72.1081" gradientUnits="userSpaceOnUse">
<stop offset="1.06556e-08" stop-color="#29003D" stop-opacity="0.5"/>
<stop offset="1" stop-color="#29003D"/>
</linearGradient>
<linearGradient id="paint2_linear_839_1376" x1="666.186" y1="645.289" x2="550.431" y2="725.67" gradientUnits="userSpaceOnUse">
<stop offset="1.54506e-07" stop-color="#29003D" stop-opacity="0.5"/>
<stop offset="1" stop-color="#29003D"/>
</linearGradient>
<linearGradient id="paint3_linear_839_1376" x1="712.269" y1="868.273" x2="510.658" y2="519.072" gradientUnits="userSpaceOnUse">
<stop stop-color="white" stop-opacity="0"/>
<stop offset="1" stop-color="white" stop-opacity="0.8"/>
</linearGradient>
</defs>
</svg>
