<svg width="1000" height="950" viewBox="0 0 1000 950" fill="none" xmlns="http://www.w3.org/2000/svg">
<path d="M869.699 305.709H770.399C769.599 305.709 768.999 306.279 768.999 307.039V489.914C768.999 574.464 696.799 643.054 607.799 643.054H399.299C398.299 643.054 397.599 644.004 397.999 644.954C416.699 689.509 462.299 720.954 515.799 720.954H736.899C737.299 720.954 737.599 721.049 737.899 721.334L840.399 818.709C850.699 828.494 868.299 821.559 868.299 807.689V722.284C868.299 721.524 868.899 720.954 869.699 720.954C940.599 720.954 997.999 666.424 997.999 599.069V427.594C997.999 360.239 940.599 305.709 869.699 305.709Z" fill="url(#paint0_linear_847_1425)"/>
<path d="M609.2 120.174H161.8C73.5 120.174 2 188.099 2 271.889V491.149C2 574.939 73.5 642.959 161.8 642.959H165.4V761.899C165.4 775.769 183 782.704 193.3 772.919L330.1 642.959H609.2C697.4 642.959 769 575.034 769 491.149V271.889C769 188.099 697.5 120.174 609.2 120.174Z" fill="url(#paint1_linear_847_1425)"/>
<path d="M609.2 120.175C697.4 120.175 769 188.1 769 271.985V491.245C769 575.035 697.5 643.055 609.2 643.055H330.1L193.3 773.015C190 776.15 185.9 777.575 181.8 777.575C173.4 777.575 165.3 771.4 165.3 761.995V642.96H161.7C73.5 642.96 2 575.035 2 491.245V271.89C2 188.1 73.5 120.175 161.8 120.175H609.2ZM609.2 119.225H161.8C118.9 119.225 78.5 135.09 48.1 163.97C17.7 192.755 1 231.135 1 271.89V491.15C1 531.905 17.7 570.285 48.1 599.165C78.5 628.045 118.8 643.91 161.8 643.91H164.4V761.995C164.4 772.35 173.3 778.525 181.9 778.525C186.4 778.525 190.7 776.815 194 773.68L330.5 644.005H609.2C652.1 644.005 692.5 628.14 722.9 599.26C753.2 570.38 770 532 770 491.245V271.89C770 231.135 753.3 192.755 722.9 163.875C692.5 135.09 652.1 119.225 609.2 119.225Z" fill="url(#paint2_linear_847_1425)"/>
<path d="M267.301 381.615C267.301 402.04 249.801 418.665 228.301 418.665C206.801 418.665 189.301 402.04 189.301 381.615C189.301 361.19 206.801 344.565 228.301 344.565C249.901 344.47 267.301 361.095 267.301 381.615Z" fill="url(#paint3_linear_847_1425)"/>
<path opacity="0.3" d="M267.301 381.615C267.301 402.04 249.801 418.665 228.301 418.665C206.801 418.665 189.301 402.04 189.301 381.615C189.301 361.19 206.801 344.565 228.301 344.565C249.901 344.47 267.301 361.095 267.301 381.615Z" fill="white"/>
<path d="M424.5 381.615C424.5 402.04 407 418.665 385.5 418.665C364 418.665 346.5 402.04 346.5 381.615C346.5 361.19 364 344.565 385.5 344.565C407 344.47 424.5 361.095 424.5 381.615Z" fill="url(#paint4_linear_847_1425)"/>
<path opacity="0.3" d="M424.5 381.615C424.5 402.04 407 418.665 385.5 418.665C364 418.665 346.5 402.04 346.5 381.615C346.5 361.19 364 344.565 385.5 344.565C407 344.47 424.5 361.095 424.5 381.615Z" fill="white"/>
<path d="M581.701 381.614C581.701 402.039 564.201 418.664 542.701 418.664C521.201 418.664 503.701 402.039 503.701 381.614C503.701 361.189 521.201 344.564 542.701 344.564C564.201 344.564 581.701 361.094 581.701 381.614Z" fill="url(#paint5_linear_847_1425)"/>
<path opacity="0.3" d="M581.701 381.614C581.701 402.039 564.201 418.664 542.701 418.664C521.201 418.664 503.701 402.039 503.701 381.614C503.701 361.189 521.201 344.564 542.701 344.564C564.201 344.564 581.701 361.094 581.701 381.614Z" fill="white"/>
<defs>
<linearGradient id="paint0_linear_847_1425" x1="697.945" y1="308.96" x2="697.945" y2="813.593" gradientUnits="userSpaceOnUse">
<stop offset="5.32779e-09" stop-color="#C5A3E3"/>
<stop offset="0.7172" stop-color="#7C3BA2"/>
</linearGradient>
<linearGradient id="paint1_linear_847_1425" x1="571.304" y1="687.305" x2="227.544" y2="60.5572" gradientUnits="userSpaceOnUse">
<stop offset="1.38522e-07" stop-color="#29003D" stop-opacity="0.5"/>
<stop offset="1" stop-color="#29003D"/>
</linearGradient>
<linearGradient id="paint2_linear_847_1425" x1="385.497" y1="778.483" x2="385.497" y2="119.208" gradientUnits="userSpaceOnUse">
<stop stop-color="#29003D" stop-opacity="0.5"/>
<stop offset="1" stop-color="#29003D"/>
</linearGradient>
<linearGradient id="paint3_linear_847_1425" x1="247.843" y1="413.665" x2="211.757" y2="347.872" gradientUnits="userSpaceOnUse">
<stop stop-color="white" stop-opacity="0"/>
<stop offset="1" stop-color="white" stop-opacity="0.8"/>
</linearGradient>
<linearGradient id="paint4_linear_847_1425" x1="405.002" y1="413.665" x2="368.916" y2="347.872" gradientUnits="userSpaceOnUse">
<stop stop-color="white" stop-opacity="0"/>
<stop offset="1" stop-color="white" stop-opacity="0.8"/>
</linearGradient>
<linearGradient id="paint5_linear_847_1425" x1="562.164" y1="413.664" x2="526.078" y2="347.872" gradientUnits="userSpaceOnUse">
<stop stop-color="white" stop-opacity="0"/>
<stop offset="1" stop-color="white" stop-opacity="0.8"/>
</linearGradient>
</defs>
</svg>
